<?xml version="1.0" encoding="UTF-8"?>
<svg width="32px" height="32px" viewBox="0 0 32 32" version="1.1" xmlns="http://www.w3.org/2000/svg">
    <title>Fitness Tracker</title>
    <g id="Page-1" stroke="none" stroke-width="1" fill="none" fill-rule="evenodd">
        <g id="fitness-icon">
            <circle id="Background" fill="#4361EE" cx="16" cy="16" r="16"></circle>
            <path d="M22,10 C22,8.34 20.66,7 19,7 C17.98,7 17.07,7.5 16.5,8.29 C15.93,7.5 15.02,7 14,7 C12.34,7 11,8.34 11,10 C11,11.03 11.5,11.94 12.29,12.5 L16.5,16.71 L20.71,12.5 C21.5,11.94 22,11.03 22,10 Z" id="Heart" fill="#FFFFFF"></path>
            <rect id="Bar" fill="#FFFFFF" x="8" y="19" width="16" height="2" rx="1"></rect>
            <rect id="Weight-Left" fill="#FFFFFF" x="6" y="21" width="4" height="4" rx="1"></rect>
            <rect id="Weight-Right" fill="#FFFFFF" x="22" y="21" width="4" height="4" rx="1"></rect>
        </g>
    </g>
</svg>
